<mxfile host="65bd71144e">
    <diagram id="vW0uiK6mOXhvCeXVLiTS" name="Page-1">
        <mxGraphModel dx="4505" dy="2898" grid="1" gridSize="10" guides="1" tooltips="1" connect="1" arrows="1" fold="1" page="1" pageScale="1" pageWidth="1169" pageHeight="827" math="0" shadow="0">
            <root>
                <mxCell id="0"/>
                <mxCell id="1" parent="0"/>
                <mxCell id="8" value="" style="group" vertex="1" connectable="0" parent="1">
                    <mxGeometry x="750" y="-121.42000000000002" width="190" height="235.85000000000002" as="geometry"/>
                </mxCell>
                <mxCell id="3" value="Backend Server;&lt;br&gt;Provides API endpoints for Frontend&lt;br&gt;&lt;br&gt;NodeJS, Express" style="rounded=0;whiteSpace=wrap;html=1;" vertex="1" parent="8">
                    <mxGeometry y="115.85000000000002" width="190" height="120" as="geometry"/>
                </mxCell>
                <mxCell id="5" value="" style="shape=image;verticalLabelPosition=bottom;labelBackgroundColor=default;verticalAlign=top;aspect=fixed;imageAspect=0;image=data:image/png,iVBORw0KGgoAAAANSUhEUgAAAR8AAACvCAMAAADzNCq+AAAA/FBMVEX///8zMzNon2M+hj0tLS1gYGBrv0clJSVzq2NxqGF2rmN3sGNtpV9hm1x4sWJ4s2GhoaF4tV9xcXFlnlp2t1t0uFdcmVbw9fByulNjmlhVlU5ra2sqKiq707lvu0+yy7CnxqRLjkZFRUUgICCUlJR+fn5XnUsygTEYGBg5OTnW1tbg4OCwsLD19fXo8OdWmU1/rXvFxcXe3t5YoUpVVVWmpqZLS0vW5NWTupBZpkjK3MnIyMiLi4u7u7uMtYl3qXOKuYKLwX8MDAyWvoypyqC917bT5M+q1J5dtTV/xGeZzoeBr3dasDpirkpJj0RNmEFUqz5ClzQlfCRjo1CanwmtAAAOPElEQVR4nO2de0ObyBrGuVm0K1trKqyYGBK8JMaQeKmkUcmpu72cPdv0nPr9v8sZLgPDMDMMSJsoPH/sqk0I/Hjmndv7EkF43rrs31ys+hzWWbuqOLg+W/VZrK9226KoPOyOVn0e6yqfjyi2B3fjVZ/JeirkI4qq+L4hRBDkI4r2zf2qT2YNlfARFXujCdS4ED6AkHrcBOq0UnxAoFaOmjCECuMDAvWwCUOIMnxEZXC76pNaI2X5iO3jVZ/UGonAR9lY9UmtkRo+bDV82Gr4sNXwYavhw1bDh62GD1sNH7YaPmw1fNhq+LDV8GGr4cNWw4ethg9bDR+2Gj5sNXzYaviw1fBhq+HDVsOHrYYPWw0ftho+bK2Wz9nOeWXpIoZR1ZFQPZXP+AkJQ6NdW7WH1eT1OX9ubs0qInRxfBznPD+Nz/huqFyXzIcZH4nBZ9sVJGAbf/3+enOztd998pEE4fLAbrfjVLon8TkfqqXT8s77Kvw8e+OyxAEQffrtDcCzubVvSvOnHQnc8XaY0Rul0j2Bz+2NHb6h3S6clnd7rSrJJ4IDPKGRff749s1vPh9goH1z6pY/kiC8H8K7JqriDvjDroLj4eQDgkfy1vBY3BrtqtjHquL7UtcDAs/Hd2/f/B7y2doHMsuHoYsbNXVSN/e3/QweLj7Qhsix+KPIkZo1baEDIPqyB/DEfLZ9QHqrXBgaHdjYXVNIJ8rD53yoZt5lb/A1snsl895iB0D0aW/vXcJna2urtR9YqEQYGt/ZJBhl+JzBwINfIEeRAuW94QEKVjl8fncI8KD+CQ20v98yp06RI4E7TrlrxfmMdgfZmBVKtc/ZZzGmvzc8gMofhoy///njjxSfrdhA+63WZMZ9JHDX+vS7VpDP0YBlQ7vP6ut38i1s9zmzZ798PTzE+PiAIgMBQK1Jh5MO444X5XMv5thQGVBrpe6HPDdJGRxwhKFPr14dZvj4eLahgQAhU+Lp68fsO16Ez9n1IP/tbZuYgn+2wfHe8AC5Yejzv7+S+PjxZxsxELCQlxuGzvPuODef8TGnDe1sCv7oGO87WVJFVhxz/gZ06HxaKKDWxGKOhs6uCwQeJp/xDnEwQCGUnnKMd/h7h+gA17QwZHx5FYrSvtIGAtqmh6Fidw2KyOe+SIT3+3pkylHwvdEByHHs0+FXKp/QP5iBWtuT/5DDELhrxQIPPLUsn7PM0DJXcUHi2UaZm+RPyrJxLAg8ef5JAEFEkxkhDJW5a4EyfEbHBZpWonDh4ox3WEo4wAF2It1/Xr1i8NnE+MQO2m5t4wPqsndNzPLJ7dOpB7J3BWGj7GkADdJxfi6fMPlA/+AtDADaXqYddFmuaYWXleYzUspf4eC9UPq9QOpR6kxmPfMbl39wA7W29dP0nPWu5C33hfE5L9lMA11XycfrmRMe/7QQQBGi3qmVOtTBE1yN8dl5AmqxXzEfxEAs/8R8IjymXBc+Jp9/sBYmP08+ij0YsI5O4vOByz9pA5kF+bSZwbsIH8Vmd5NMPnb/YjxizQ5xPksTMRCbT0tHAMmF+CiDO+aEvgAfMA0A807GsRh8VCVc62GsCeF8Jj6fK672lfDZb/WK8FHs6xF7XsbNRxWD8clFn06QyqetJpN06slgfP41CQAd8vknBqTLBfiow2gZ/D67hFyMTzs5e/pEhsJHUQ9SW16E9WwyH5/QFZ9/YkA9fj6qkuzDjI8oV8XFJz1/HB/jGzYxnyHpzX18r2JMHLDhfE4mAaFDPv/oiH24+LTV9DZcdhuKm4+Krz+cbZBephyQ+RCm5keE95P5TE74/GPqiX14+CjZfeDba+Lrcvm04TK640lweeWcsNM4OCPxIT6AYMzPJxwk5vrHDACF9uHgo+Cz4UA3ufunBD7wFYalaZIOd3QzM1H7BpiMwEclbbaOCTuVBD4nsYHy/RPw6fHyIT82gjC95uCzG/xLR9IkX1q4vIJtVUcLQFXy+X4SEfrG5x8AyJRXxsfSpUiaZOB84kcJVcwnIsTJx9R7Pd74UzmfmSbFgDA+SM5L5XxOIgNxtC+zF2rd+Nj9ZGGrUj5XJ5GWh1z+6UGtE5+2uoMMI6rkcwUU8pG/F/EP0NrwwTdQq+YTEFrK8mEh//TkNeFj32CDrCr5fLiKCIGAsnxVyD+r5aP7fA7aotrObHz+DD5Bj/Rt3f1jzEzYvQcjxPuHB8LGeYV8Pn5I7CP7LYyHj7wyPmB2MQVDIE2HWwMjUlpBpXw+fIjtI8sf+NqX/Ov5iENIYi7pOemQFfMBWkZ8ZL72Jct8fERSUsROufkpskCRl0BSOR9oH1m+4vMPNx8bfxD2LTEZkGv9Z8Cb0105n9g+sszpH7lncvHBxiaXB+SFX771Q2XAl9NdNZ/vCR75hM8/gI+55OGDJnfR81l515/VNk8yZZV8/gv4yKj2+PwDAHHyiZ+vSlnxLcKHr7SkUj7fvn1P8Vny+UeWzR4vHz90nN2y0soK7O8o9kFeGKqWT9o+oI/f4/IPCNHp/ATm/mDOpl6h/dN2+46dblotnyXGZ7nH5x+5Z/HzyVHB/WV1yAxD1cYfGdcjn39kuYB/quWTU1pC4EPOsieshGf44PYBBuLks9L8BFYYIvAZEF98lw2JGJ8v/8vgAX08X/v6kc5iJZS9cau9mzrUBU9eNwhDlNFQho/yQK4VG2f7DIyPcXpKAPSWxz+nWvrD7nmT1Ql6wLK7N7gSyGgVbnhYGeALRIneq5hV8UBlLH5k+Uw4/PMjU6xyVKjkApHycIQdanzHdyw1s2uc5UNYIEI/CcvQzwbyz2bWQm/y/PNDIkwSL7nrHVIiflnRiJnDEotY4YbyaQ9w9uxPInV03Uwjm7xlrv+cypRiuQuuepmUooyVrG75kqkJk7KEDy0lHjtrJFuGOBAwZjihRwYfvONKqUjJhJjKWMnqHA8OFMI2FoYgHyWzekA967hYg8hHEBwpDWhJ53PqMVenxrv8WeLg9jIn5LwFmoP0Pn/ER+3zP0Ygzpah8BGEeToMPVLi8zK/AIy7gIfj9mYLfMlKtaKAT9GvZbkMs/+pfATBkhFCS5J/zKXOVUBITxRDpA5zKkdDMee1odp2upEOxVJf63PhL90x+AiGh4ShSdY/pmlxfhQ1USy5Jv7be85INhSDkTRmww275NdCvR/a+EgsLVdKRkMZ/xBLdmiiJIrF11Tk6/WYtO3rzBBofFf2+3xGO3me7uinsYFS/qGVfFF1Sy/noZfq0c6blmyo9rkaaZWKwxDqnwmjZJCqc/IIhjPwpEWkra7kq7EcLwRkvob+aW1TS04d16V39+OjbNo8moVcSJniu7a9qq9Wi8LQduSfxz9pgcedarouMbbrRthoCASe0g/eGe+gtLNh+Veq0wMe6gX+eaQGHmemaeFmOOPpJan++YkPbholk8nCIaxqWaCvb21ubW9+orzAsKQ4m0JbMJ5eEpfDl3/iTqyo5N8uE8IqljP9cfr68S/aP89hJmn0P8bTS8Z3fsFMRV8Iez8c2KlssdXJtahhGQSeMAtn4Xb0sJFpjMcGjA4eHnieccGl24u1oMOQMdMj73SEJCkn/K2R0I0co1vRH4KknCRrqd6CgUdHH1RC/GMdFVtlgVmlq0FT/ZSHbj4PxYGHMOIx4GiovmEIeoTSVSGd2q8+s3XQfBENdegxBr5EL7IU8jLkeDDwsB70Z3Sl/NHQC1RQlpY31QoUT8oWqTAExprzl0ssKkvj65xc2MUlz201vK7jdJ72HNf1lQujisd5gXPYyODKx8Jx58A+vO9/XnI1jsCTVtwcp8GvnY7gWV3JcLyfdY6rVGAGTesWmhU64UgpLAQAlLy5IRlCVY8jXyd99i9UK35l4Who4f8I/jNbSJYgWC+w2++Cy9RKPUPcr0YKyrQ8w/ePFvzw4uTzkUpdV0eLyrTmljCdC5rjFnnA7XNRwCfdLhzXRXqiuTUF4Qm8aooNcWI+ghesE7mLF2gfAh+jp+twq9mwdD1ZhtZSE4uEj2Atuh3vJbYuEh/HL1Gzgh9dLal4DBHpyQAb4QNeydgne9Zi8Znr0DiaBkklgFJ8XqwYfIxoMWg6s7pdC3ThASIdxqba8wn+CZmpO1YAaBH9Wns+Ux9PakLvI5F0J/mlznyMhZQB4Pljwmhlo+GT5TNP+rba8xEWmfYlGJ7nTRv/hHy8ID57HYcMofZ85nCbeQF6+LmLT85rzyc0UDxClBaeha4QNnyEmZ6aX/iQkjWehk+wGI9NwZL904aPL2Nu+VmIejwBk/Sm/0L4RH9z511PilqbHv6t4YPLCDfKouXYuvPpzGazzHZqMCezgh/rzmcKQo6Ov3zuT8DCdea68/FHP7qLvbzT8IF8/NUeDd8SRSbwdefjalImUKMLQHXnE81PF13XCOV0gj3TaNe94ePAPQsw9QKKhz/N+mHUrNykBAOZXzTr83HYgUmryP6X18xP0fGz0wWzr3D/C8zCFugCR434pK4Sn18Y7rzTtaxuB1shqwefYMBnoX+hz79ScqYwv+VFywnyo9Cv7zZ4+BjhXuH0Z57aesiLUgnjxsPjnyjjVS+VWPW8ZMDaHJhjZyF7gGTFGa/WLzi/1WsGC766PqGOLhHmpYgMmGov1cA9gZyo8kTTp17oJkYqmBUXXP66E1y5YOUJrMqllhnEdbt1q5TrInMJjdYtubTyuRrIL3gPU8Vp2dBJ+Vw9S+SMuQem6VOL7A0jp3yuHqJeOkf5XJ3kpmsF3KhPr2ltJS7XX9dI+rCkfK6egQeTE64UxhVPNS2qpCvqxrUg1sRFuU3gSdSJLeMVL5+rgwwLjnVCTnl1u/UTfNQEOrVvhAou8jCejVRzdReStG5l2/8HF/hYmJdSI6cAAAAASUVORK5CYII=;" vertex="1" parent="8">
                    <mxGeometry width="190" height="115.85" as="geometry"/>
                </mxCell>
                <mxCell id="9" value="" style="group" vertex="1" connectable="0" parent="1">
                    <mxGeometry x="280" y="-200" width="190" height="273.02" as="geometry"/>
                </mxCell>
                <mxCell id="2" value="Frontend Server;&lt;br&gt;Serves React application to end user&lt;br&gt;&lt;br&gt;React" style="rounded=0;whiteSpace=wrap;html=1;" vertex="1" parent="9">
                    <mxGeometry y="173.02" width="190" height="100" as="geometry"/>
                </mxCell>
                <mxCell id="6" value="" style="shape=image;verticalLabelPosition=bottom;labelBackgroundColor=default;verticalAlign=top;aspect=fixed;imageAspect=0;image=data:image/png,iVBORw0KGgoAAAANSUhEUgAAAOsAAADWCAMAAAAHMIWUAAAAclBMVEX///8IfqQAfKMAeaEAdp8Ac50Ad58AcpwAf6X1+vv7/v7y+Prh7fLV5u3t9fiJt8vB2ePd6/AniKu51OB2rcRlpL4dhamqy9lYnbnO4elDk7JAkrGawdKhxtY2jq+As8hfobuSvM+yz9y81+J7r8Zvp78y5Z2XAAAVZUlEQVR4nO1daZuyvA4e24KKCoobKOIy4///iwdcaLqkpIzwPue6JufLeefR2rRptt5Jv77+6I/+6I/+6I/+r2i+Ls6X7JDdf5J9Hn9gwDjfJ+d7NeLmfF1+YsDP0HR9GQWCc1YR51yIIMyu+bTzeNGiyHggqhH5a8TxJLt1H+9ztLhwwUYqVTMU/NJpetH3fRRUPOojCr5dfHzufrTIxlyf15vfMNguPYfLt5WAWIcbMT7O/ktuo83YzuiLuJhcZ+TRpqddgDD6Yne8iXrkxkk5c07txe5mThosPptnwRyN5T3zhFAxbuX0Mb/g3s5tvMHOgkbjYgDODLoHJFZHj711q6nojJ1Sk4L7QPwB2grq7B7curbjxMmcViS2g/H4orvBam1ecTEMd5hOzlP8nFpHFAPv7DXQ5iRClpaHMq22UFhPHgsuNpU83QbWT9fDjNLymE6q/6d9Ihj0zOZjdWLh9vb242ardXI0plcT53tjoJtNlVfcHZP16rU008U+05ZvPKA2nk5UHgpd9VRuY7XR5tZm6tZOM1O/MSHuS3282VU90pPh7OyWw7ltrJ+JbkfTM+DhN/jI0tRJXBzW9t/cQFHhg+mnBZRggfuBi63JbSBXZqNvanVIf1boaEuoDcdDuYslWGGBT+6rdhEMw8nTp2cxT41/4WenQ7kCzLLyg/w4aC1/k4m29Y3vup5l4lb9/aZrLyZ+2lznBfhOgIj6h6n0+8XVQZNVFpy/ztoKVGqL4Dav5UjDbOxS/iC3qyWd1hNNXLmulATqaah0l98LfOPFLpTJHaGq/ujHGfuxICH+dgS+lHXmgEyxPK2Pg0ejRYq7z6J06jeF9uDX+89CFY0YsdTne2csLCJv6oN2jYDw/j3FY/NjwnT5XJTrp/Y545Gfvyc3lh29vtiBpAgz7vnVKDPlWGS+3p70jHsXYmlc+Y/3l0+G+3DyHuOnGUP0bWKlKxx0cNNKzap2MJKL5tzzvuNYKUL+scY01S0PT71zyFETY7HQ97t+NJer6h1qzHamcurALJCsfg+sDDZCunF90mxnTUDs6AnkJ93C5sD26zpd5aLS0r4N2VntwCwQravfNz1JOoieh2U6wbxEtvMUY2n1+nUTd83vHLy+p6olpgR0zPPMHpov77y+50nTJofJzz7fi0qolni6UNQUL71U+vn9XTbq86JSek1+DuJRZ01j3svdk25ir57TQv6Mjw7MzF3UmPU5edIWdHFnyPQtefX4mW0I2XrvobLXoYcPBBb8u/3TnUmKj4cdP0OXn0uddoDMCvr5jxuj4xlp+ZEMXjlZnZxg4MqhB6yIcUAOA6JGTDqEDnSSrsSIyutyrLAKv6ae2TFVA0Sjxhj06UwkzeSonv8KmlLdkipWl4XEVIz0/rlXSsOTGtNGNeMxvFQ0PaQpdBzZiOgtNg6Nn5H3pE1jxom5JhiwMmbqM3UtiOFs2vBKy9l2I8krbVp3RdXaZHSlKGma5WkWcBheR6R9LYAKxq5DcqimabfIw+yr33lV2cCyQzflU5Ss4jDn1UsPx4r5xHesUAxwu48ykB72sa8RNChOaduARWFp+8DD2Fcfv+kCt3W33BdJ8rO5b7PscCzL8ng4ZNll+5Nci/33DnySX9oGjmTats/U/036w2228KTeaTwgsk+ULKDHn4SaIm91FoE/7Jvz8iEZ5wSokxPNl8XmYMkZUonvDvfie4XG4SvJa59xTi7DKYvCjFa35LIT9RaSsIUosXqzxSRLbivLUXFP4mMkc3h6rD5fJwcRhL9kUmc5DPhxs9cYBsLlmcv0IpmDAeFUlBcZQ9Bqv+e3RrCxQ7KU+kHeCvWag5mOtNzaNL8eg57YVBkep+fvJ2sD5dake8a2lZIoDrx3PiXDNXTvWp3QbfOLXpfd3iRzs+l5YqlB6J9fvpHr7Zej9iXg4nQwKvXKQPM6GvmvFQBr9ur6Q8eJOrXaXwjFgypxn+zSymXKns5TuttVG/X8x4eb4Tl2z4iJpQ8avHYLyuynON2W+Woe273KKJ6vVvn6dN1kR08HpNd7uum+9Fp7em7wRSdyDUFNLC18LzSptNoE7qqSWlNCZHG7G2+QckMwaTPajAd3OjaKTsvMVShUsRnssutydoGT8zd/UzhmFq+TbOQ23zzIPi3J6xLd0trQh2XyNPQArNgNqQ7R9U/I4Xx9Tl0bzET5SUDMbYdxWhu8Q7F4q50IiHDHBMkPkJ4m+REvkyNHa3iY2H0quFtjWEJWOW6JUvwJzC/bdcPkRyBlrBjQ6fKn9l7sUxHpJ/Y2x6U322u+NwTHd0apQynWj0HllWICFpS/DfDii7V85jG6mSIGGaZfpPiAFFtS7gZGSnJ7+VXYU7jq3Ma6mr3Ke1b2GygDkOJQz55NHQWL7ko2N1lBv3IeRrgOdDApz4sRzCvr4Thw3GzlZ2nHk5NYxLcyZxLAq2VnwVH6JVQQqjgtlpEZamYz+HSIOaT5zoKAZclMIhK1A7uGFxq/q4uCpku7L2icVMa/ZgmzzHHnnZgxakpqK7avWZDbx6E36pifP32DdVNuGGZyW+sNj/am5We+mdSNWVXztmAy968c2EQusReqxU7ALxZQKuVxfef810ZJKQt84trpUZcNYKtzK1o6hvrk9ykvbDiAlG6039o4beGR7InHehypVHPKKwZ4WQduNAw70YUKICYX+Wd5GwIR+Hu93odTAZ0rLUHAxFlRNVITS4OwABVRn0EJAp9BQrZkyl/FXUZnTZAZI8V6K9XnZOKgKbaTJUkM7M2HCqJAxCTtDkgNa9Cm+UHlloQ0maus8tDAS8lr/2YSsO7sU0BXoJ6a5ZNLKgzLstf2iLfanlh1R8TBIvjy0Lxv64BX156Lj2ZxHLefJ1Dg9T4WM7mkloMyOyg6ygZFUeehorftnSukMnwB4UHlV9tVd54cd6EIRLg7Ji1+5BnYnadwSfi7vWBG7e7RFlUqGEGGdCSRVuepISK4Pq7x48rRkW4Xr9ww19JPjWGlVkRu6HJFrbqPkwqTLLGZgNqr2pBdjQ2w0sxS5Cw2DmGWSnAkajs2BTVXyFdiBfYnHEKmtFIQ+KrIspG69mlGszc3a3cQzh0eHXQ7Z0rNFx5bKJKJYxxhEm8kLvgcvhUhPlsUpkn2nhm1R4cX+oBq8Tr2ByLsuFC/QNlE4ToQZeaUdSBMwXQmG0ngl0nRAb8wEAf0jMvUOwtnU+lIcJcPCHPMWNEf8H3arKTMAotbArYVjZRLR35DBRUrBKJ2fpXAlJaaL8gsMiVZ2dqKMgJCfJSFN3i9TOZi1bWyUmzZ5EgS4S8VWWWvkoWZjzb0WATkFniHmFtWtN14oYkimNeRP9kGropBgYE1GwRd2lYszd2yUahkrdpvpNBl2tp+qDXD821zpq0TImSLbHeTpov6IiynCwjVarZ1ItxFgr2wTAskrZxa7kUTYwboCi0pF42otbqYCzVpnx6wFBavVTr0IeXWNDFka4xt67F9Wx2V9isjIUxClxbWjMJrSLD4lCTgXBdi9LQuaPfHqL0ydDh6ViCBrhuGLpBRMBGUqx9CdAamBFgJ/Vn9xBLRL/JnjSoe4B3Qbqpv6sbi5p0IO8ArCDJ1AGJKdIV7HvK4UtNFGhIWW6EZFQKBonS1jcVCHJ1QjiK549S2ERsl1EUFK2/zIxoe0NBdOS5kUJOcn2ZX5pZ8WQspOge/q9qTeUVDX8VoketAQR5OVSVSuumgIXAQHeU6V5pqcoL3U9IvaSTdHU0DgZpS8m3iHqS/8Qscohp26n+YzyKXgQJItSoKqw68AryeYwaf4BX0kaHj8nJsX+cdZBhUXzhyL5+QYeCQ0m8VUBnuoJuUqiq8586NqpvwRiRrOAT5xl6KXahGqMDmUK/ElWgLVxkfsDmKN0LuQyNDHT3clTlwopBMVQuPLveU7Etg0VUe0D6nkRR8nSO5CsQOAyd1v3BnghTmuFqKaZ63oB2yBZ5glWqdiEzS3VzUxhOVE6qact33p1lYmck1nJR5EyaSQnUzUkMTa0b0Zyd6VoPkOcG0rjGy9E1I1YcbM1ZHA1BSrI4tlb6tRI8dpFlM7BvwDAglPpEJgsRnS+mNjwJwzWRVaxrxS7nQtGwdEDXCdfHallvDwjrCxqI/aW4rqYFe5sytQXRHe+8R2/QdJ7aNWYaeVq8fagg40NYPQ0AsXvH5pJkVFYgqjX2bjQ2wxV3YcuEj0XIrD6N7uxoBS9jWF2zfJNZZJt1i3MZu3LoYaTn+pVi2Heh/5k7DwH5niAxA49DSPQreDoLsJO6rWtp7AlZRmQQpd3FSb0IdBLslYYcjgcy6snVAhIMIIAgc7VQdr3c4IHUwSI8iOYRTiOFtc4iGgBAYwvFbURC71CsMIQS4hizQu2Y8IoXdhgtFmnAhjiCrjlYuijPk6PgGfnSt2lrH9UNuAenWEFhHjAaXPoKGDhfiqdoUyuFiKZeHHEPiRpo/CcIAXGbq0Uc6kk6MXJ+HAlM7/NDvQ/ZhrkAp3WGC0hSCITkKqTHY5fEHKftuZzoq0kcV1eN/XARp4fKAZpK1VzYCJOyxmfmEumrPxrE1ByR94df5/AY+V4uzutrfjzvG2a6uuXd/FLjcr4t0AISx6rOz0oK9te+S1nY0LC1yDDB6r32BLf8JN0vTGSGUAlfq7zAOaGJLRmFewn59lEapGiCRmdf7UoM1zsPCfY/dieA9/8L4m6l1Cg1oOiIgtucafFiU2rCgKUxz9i8ku+NDoFRCgqXBbaK2BYtSy5OMSCUOsdZSlgV3ReTA4jbjQZ/rM4/bgIys9H2kXKtWZ6a/+sEmRBz+VH8ChQugMKdSC4PDDwrDPtJVCaTQobprehCMhJxRZJSHebSrNrrTV4awEVdQSgEmAdBrn2hdIlNC1W+DeYPahsbqnEZGJYZXJ/3EcF/Dyek5QGL5uS/FofiAegLJRyWYBgv9lJ7oNFG072OtPQXr20yyhOzxrpW0L6rfkCLT60Iw1lbShlOu/H12ZQanjHt3OoqNGp0aALuZyxsCLapRcG+/6w8wA8dPi7XBSn+t7qGZjxXHLtVBhZk6YTwAP6aJCrA7HToQQALZIt1BAvnB0lLlbHEHaDS3bK2jJjSG6uk3hStKFaKmUN3NPMSxu1o0CpogGWCO4jNGFkK2jZPvgprYHvvz+d0ftIbb0lEIuMW/qIAFF4C2OnFsOiz4+W07p9UB5TbVq06U2vyuUgwbFo+1UGiRYKyy4PCJDiL5EUuf8IDLhyRrOsP8R7dVhu83KnUY8W0bYj0XWHD8VJu5ZYntbd3+Ld3c3hpB6aXR7R1EKMHNKZnfNqlAG9exoPxkn5T8gHeDqfgVk/vp0VQDQpE6VTfDTq6PuC3KT9sJzmddQn/4dOvAxd35znDd0fBwvs23YE6EPqw6xcCmV47L/l7WbaxcvyvufTT5j4tJW0+jUOlp1MEvVm+wW3saiVHRW9vAbwKcHc716mdlo8Twbp2sHvrs8QmzaBTiLD1sr6f9erlY2ctAZ/F8ka/3zxZkhPfalaUc6q0gGtW50Udz0orCun3cZLJL0/LRV25S/9u77VyH1nJ9vxUk4TKsSxPIx1dY82J3hxGUnoH9PmQmY+jyVDf37DDZ3xAXQVmUDdv9vjwo25JXazpb33fD8Vt3dNusZ1C2hnoX6eW+zffbUe/81t7Z5P6+J/hP30WqTP6ubuLa5fi1s8lFCLzQr8F68oL21XqgnheXVLh8uQ5sVgq6rJxPjSPwLlIfzRHf1NK+epp/pIn2s4U2y863hc0XGaiH9pqypNGqbo7e/QizbFOsV3h2DghXny+Fgjeg2jKFGs7n5TDItvev/3i0qVU+OW5jQKZheu157/OWgYLzSRd1K9rkXL9mcMkqutw356R+yGC9zBcw2YDjf9400FsGXu9xwJjFmUSFl/kE/0CWBfbqJJ59eFXeHnG0tVAaeLD2LPpAb4/8eLks6psyGE7j5F1VNfAbULQW7CobCJxD+QwpwTvMW0GNK0oEom9A7M2sCL4cZu1C2j41t2T/0htQ+qOZpk1eKf9OzNn8i29AfemPshndo1qedEPoH3wD6kGKMmY7ldlYARhR045DvwHFyF08FWWsbp2y6fTC1kgGln36EicPv+lNyjtlELShvmtMz5wDv6nPtzM7vYmqvlNWvplV0Ta0l+keNNAbUMtO4ZTa2ey1syqrHs+/wpiuz6QpHqs76a4yW7uBMwX86vOs71Cxete3qTNdG2sa2Kt/pFQa4UDvIlFbMzxJ7UU4WSowQKoP8SIAkRvoXSRyP4AHRYoDpQLNPFkFsWK/7yIBZLbfFyMd4yhZ9XtJ/utL4i8vfl/0JJmY8AUdYsx6s7oaJi2hGB1ffI2dWd7+VqZG+2FMTqWIZQmHd+/dyNI40HtXYcHMuE81XFEzS7pH3JCmoEbugidsEBAa+X7Xk2zNyemkFbl7KvMH2Vuz90IAwOt/+3k29tU/KAMNE/o9rkrZoPCUv7g00RAh2vcXIdCFXvTqSdQEWnb7RVTmSxAPMfaMVaTR6/nVwZpkmS+lT2FD0wwBiLLg4rM/ElNkNm3/OE0lr85CQZXWDogLZ/QrKADbDXsXYQgYZNQMUYxt6ouCjDoQaGfZDe7oRwA4S4zFCh1lJ/RSWE5090Bs2Pk9LS8C2DUKun45CTWlFBRfV73Ji9gRLAiQ4AE0U00KlrRthvnBaBzD6u8sdXQFCw5tOwWx/h96CaOVwMYy928uTFC5OD5v4mZG4QQTbm6XYKyBtlVrHetIAH5bAOWgJsqs7ar2Fl86JR2pg+P7I6XJjzhYleg8sSBw+QQ60fnEMETVuU2sgXGsNJLv+UVfhZTMGAs2+iqvitKGIzc6Sdi6TvAgLXR252rNZ2t19idJ61TFg7LIn+/2RnG+v++sNQh8Ygro0tzaR81Eutm/BvyKl1d94cjXIR8hvZtN/V4oS9NdJYTCjthjwdkWK0Rna9lEjeOqTNUutYHDgz7T/RYyFcujkwIKkw2O2F4sDKskBxzZBuz03N6v6OzxtDITI9dWrI1iXRcFfV66IkRmlvFWbE5BR14Pv6s13fBSO0hcXNtxPNMrDZfLhj6rb1phD/6CuYkRgdOapka3GAuF6WA+hEGJ623uR2WwzzbcjugbxQ/i/438vml+H6N3F4Kffe3g6oxYrHq88eb3/Q1+R/FmYhjAx2vr527g3uXPzkRcVxIyOfec+SZRtDwfg2f1Da8LbgJRbm6/OVfz/bbkjxGfsFsRpB0Xrhea5rci2V5+kuKWf0bS5vWIP9vz9bS2osP/6I/+6I/+6I/+Yfof6+IKKo5LDLEAAAAASUVORK5CYII=;" vertex="1" parent="9">
                    <mxGeometry width="190" height="173.02" as="geometry"/>
                </mxCell>
                <mxCell id="10" value="" style="group" vertex="1" connectable="0" parent="1">
                    <mxGeometry x="520" y="160" width="190" height="240" as="geometry"/>
                </mxCell>
                <mxCell id="4" value="User" style="rounded=0;whiteSpace=wrap;html=1;" vertex="1" parent="10">
                    <mxGeometry y="190" width="190" height="50" as="geometry"/>
                </mxCell>
                <mxCell id="7" value="" style="shape=image;verticalLabelPosition=bottom;labelBackgroundColor=default;verticalAlign=top;aspect=fixed;imageAspect=0;image=data:image/jpeg,/9j/4AAQSkZJRgABAQAAAQABAAD/2wCEAAoHCBYSFBIREhIYEhgRERIRERgVGBgYGBEYGBgZGRgYGBkcIS4lHB4rHxgYJzgmKy8xNjU1GiQ9QDszPy40NTEBDAwMEA8PGhISGTYkISExNTg1NDE0PzE0ND82MTg/PzE1MTQxNDQ0MT01NDQxMTE0MTQ/MTQ0MTQ0NDExNDQ0NP/AABEIAOEA4QMBIgACEQEDEQH/xAAcAAABBQEBAQAAAAAAAAAAAAAAAgMEBQYBBwj/xABTEAACAQICAgoJEQUIAgMBAAABAgADEQQSBSEGEyIxQVFhcZGxFBYjMlJUcoHRBxUkM1NVc5KTlKGisrPB0uFCdILT8DRDRWJkhKTCY4OF4vEl/8QAGQEBAAMBAQAAAAAAAAAAAAAAAAECAwQF/8QAJxEBAAIBAwMEAgMBAAAAAAAAAAECAxESURMUoSExMkEicQRh8IH/2gAMAwEAAhEDEQA/APZoQhAIQhAIQhAIQhAIQhAIQhAIQhAIQhAIQhAIQhAIQhAIQhAIQhAIQhAIQhAJW6Qx5pMBYEEA71zck8o4pZSi0+N0vMvW0B+lpXNwfV/+0c9cOT6P1mRxmmKlGptVLCrXIRajFqwp2DG3CpvELshxPvanztPyS0UmfWIUm9azpMtl64cn0frOjH8n0frMgNkGJ97U+eJ+SKGyDE+9ifPE/JJ2W4R1acw1/Z3J9H6zoxvJ9H6zIDZDifexfnifkne2TED/AAwfO0/JGy3CerXmGv7L5Po/WdGK5Po/WY07KK4/wwfO0/LOdtlb3t/5VP8ALGy3B1K8w2nZP9W/WHZHJ9H6zF9t1b3t/wCVT/LO9uFb3t/5VP8ALHTvwjqU5bUYj+rfrDb/AOv6MxPblW97f+VT/LDtzr+9o+dU/wAsdO3CepXlt9u/r+jFbZMN27V/e0fOqf5YdvFf3tHzpPyR07cHUry3WedzTBdvVf3sHzpPyzvb3X97R86T8kdO3Bvry3DVrf1+sabF24Po/WYhtnNc/wCGL86T8kTg9mj1cRSwz4NKZqOqEriFqFL8JVViaWiNZhMWrPtLcUsYWYLbfNjq5CePkk2U2B78eV/1aXMosIQhAIQhAIQhAIQhAJSad75eZetpdyl02N0vMvW0DH6RHsp97+zU9/yo/g6LVHCCwuGN98AAXMh6d1Yk/AU+syfsWANVmchQKTBSxsMzEW3+QNOqnpj1cWSN2aKz/SUmBN+++p+sYxibWzIwFxbWNVwRcc00hrURlAq0xfWTmGu2/Y3tM7smqhaoKMGBQBrWIzA+gjokY7Ta2krZ8da11rCIXWNO445EbEHiHRGmxA5OmdOxxRZJd+WMM0YNYcsSavP0Sdq248XiTUkc1hx/RObaOMSdE6nzUiTVjJeJLxoncfNSJ2yMlo2zgC5NhxmNqdySakZxGKWmLu1uIb5PMJXYjSPBTH8R/AemVdQknMSSTvky0VTuS8bpd3uqdzXk79uc8Hmj2w0ezcP8Kh+mVDS32G/22h8InXM80aY5aYvlD2bAndjyv+ry6lFgDux5V/qvLjb18IdM813HYRrb18IdMNvXwh0wHYRrb18IdMNvXwh0wHYRrb18IdMUjg7xB5oC4QhAJT6ZG6XmXraXEqNLjdLzL1tAw+yU2xH/AKafWZBGIFgDwNmHIbEdRMmbLl9kD4JPxlZgMKarrTSwZw2TMTYkC9ieC9t+d2GI6fr/AG83PM9bSvv6GF0XhrIq4cEIS1MZnshJBJFzxgdEsi7G+8uYgn9omwsJMwmg6tS6KF2xVp1CufcbXULhGzZL5ro2rmlbUVkYo9gy3DhTdQwJBAPCNW/LUmkz+PuyzVzVrraZ0/ZZog75JnDRHAQPNEB+SBrck20c26XHpnwhGGUiOviOSMPXHFJ0Wi0kM/PGXdTvj6I49RTwyO7cTfj1xo0iwNuBrRBJ/wDyNPUtvgHm35HetfUdXJvRELxMnqmLI1Luj9AkKrWdjdjfi4hzCLJEQx5ZbRbU01Q8UbaryRxmjT2haIgh6kudhTXxtHy065RukuthA9mUvLTrmGf4S2xRG6HsFJ7ZyOBHI8yPLN6oudw2/wAQ9MqqR7/yX+7eW1Q7puczzXa4tb/xt8USPpZ81IkcIJB3pIBkDGn2OOYwIWxrSCYgtUpMWXNkuQRuk3Lix5QZomP9WmC9TA9wb96xP3jzdMYBYcQ6I7h++Yf5E62jF4/h++byKfW8CTCEIBKrSo3S8y9bS1lZpIbocy9bQMFszcJXUnhpoOuRNjFcHF4cDw2+yYr1RjarT8leoyg2P6QWhiaNapfJTYl8ouQCLXtwzvwxrhn/AK87NWOvFp5h63oillxFU/6bCr0Gqf8AtMBpp8uIrC579jq5WM11HZjgVZqnZA3SILFWzDLm1HVv696ed6b0ilbEVKlMnI5GXMLE8tpT+PW0WmZj6afy5rbHERP2kFxxnpiGf/P9Mrdu5Zw1Z26PNikpj1D4UYeoeMSO1SIZ5LSKnXqHikd6nOJxniC0heIczcs4QT+1fnipzLC5soeAxps3FeSCI20nRMSjM54rRBcx9zI7tyCUlpDhbjPRL7YOwOLpW8NOuZ1ml9sEPsyn5SdZmOafwlrjj8oev0T3/kP928t6p3TeUZTYc9/5D/dvLeqd03lGec6xeV+PPsdfJMm3lfpI+x08kwMz6mJ7i37zifvHm7czA+pke4n95xP3jzeuYHbx/C983kU+t5FvJOE3z5FPreBLhCEAldpAbocw6zLGV+PG6HMPxgebeqZqqUuZfsmYpCSQACxJsAoJJ5gNZm09VI2ejzL9lpnthTf/ANDBfCv9209DDbTFr+3FmruyafonD6GxT2yYSuwbeJpso6WsInSOj62FZExFM0mZS6qWRiVBtfckga574TYXnk3qrP7Mw/7o33kri/kWvfTT0MmCtazOvqyOeF40GhmnW5tpZMSTOXnCYNHSYmEIS6IuIE7eSBjG3MWY0xhMG3MjuY80YaUlpU05l/sD/tac6faMz7zQbA/7WnOnWZhm+Etsfyh67hj3/kP93UlpWcZm8oyow59s8ip93Uk9zrPOZ57qPBpXaVPsdOYyUDK3SftFPmPVAz3qZnuR/ecR9483zmed+px3g/eMT9403zmAsvJmCNyfIT7TytvJ2jN9/JTreBYQhCASvx/fDmHWZYSu0gd0OYdZgeaeqr39HzfYaVXqYUVqaRUOubasNVrJf9lgyIG6HYeeW3qoi7UecfYaYfDVHpur03am6966Eqwvvi44OSd+Ks2w6R96uW9ork1l9D6QrqiMWdV3JtmYAX4N+eM7ONIJiMRRenUWpkw5RyhuFbPfLfm4pQVaj1GFSpUeowNwXYtY8l5wLL4sGz71Z5Mu76cEUIWnbTdiIGF4nfhDsIZDOimeMQn0cgTO7WeMTppnjHRJRrBpjG2aOsjckZdWHBIXjQ0zRpjFu0bYSsyvBpzNDsD/ALWv8H2jM+yTQbBUtil/g+1MM3wltj+UPWcN/eeRU+7qSfU75h/mPXK/CHW/kP8Ad1JYYg7t/LbrnnukkGV2kvaKfMeqWAldpE9wp8x6oGZ9TnvB+8Yn7xpvKhmD9TrvB+8Yn7xpuqhgcvLDRg1vyqnW8rryz0b/ANE+08CfCEIBK3SW+OYdZllKzSffDmXraB536pFF6j0hTRnIsSFF7DKdZmLXR1f3B/iz2PFaGGIbbGqMoCKoCWvq3ySY32r0/d631fROzDnrSsRLmyY7WtrEPJF0ZiPF3+L+sUNF4jxd+gemes9rFP3ar9T0Tva1T92q/V9E07mnPhl0LceXk/rTiPF6nQPTD1oxHi79A9M9X7WqXu1bpX0Q7W6XutX6vojuac+Do248vKRofE8GFqdA9MV6zYnxdx5gfxnqfa5S91rfU9EO16l7tW+p6I7mnPg6FuPLy4aDxPuFToHpnfWTEeLv0D0z1Dtfpe61vqeicOx+l7rW+p6I7mnPhHQtx5eYHQ1f3B+j9Yk6HreLVOj9Z6edj9L3at9T0RJ2PUvdq/Snok9zXnwdvb/S8wOh63itXoHpiDoet7hVH8I9M9ROx2j7tX6U9ET2u0fd8R0p6JHc158LdvZ5a2hqx3qT+dfTGH0FX8Xc8wt+M9Z7X6Xu1c/E9EO1+j7tX+p6I7iqYw2h47U0HiPFqnmEt9h2AqUsSpqU3QEoAXFgTfeE9IbQlEf32I+p6JHq6LpqUdKtZmpuHtUyFSOEatYMyyZa2rMQ0pS0WjVOwR1v5FT7upLHEndv5bdcrcFvvw7h/uqklYiuc79zfv28Hj55yOg4DK/HnuFPmPVJS1STYU218eUDzm8jaTTLSRSQSoINt7e4IGY9Tv2sfvGJ+8abmoZhvU89r/3GJ+8abeqYHLy10ZvfwJ9p5T3lxove/gT7VSBYQhCASr0oN0OZetpaRirh0cgsoYgWFxe0CDhweIx4qeI9EkDCIN5F6IdjJ4I6IEYqeI9E4VPEeiSuxk8EdEOxU8BeiBDKniPRElTxHok7sVPAXohtKD9legQIGU8R6DOFG8E9Bk56KtqIvxC5t0T5x2Z7JMUuOxa0sVVpotZ1polR1RVU5VsoNhcC/nge/lG8E9BnDTbwT0GfMvbPjvHcR8rU9MO2fHeO4j5Wp6YH0yUbwT0GJKHwT0GfO2h9k2NNegGxdZ122nmVqjlWGYXBF9YtefTdOmlhYWBAIFzbXr3t6BWZDxHoMSUPEegy3OHQ/sL0CHYaeAvRApyp4j0ROU8R6Jddhp4C9E52FT9zXoECgqIeI9Eh1FPFNV2DT9zXoE4dHUvck+KIGYwA1v5L/d1JMxJ3dTy265aYnAUlV3WkilUexCgEbkg6+YmVOJO7qfCN1wEqdcj6YO46eqPqdcj6XO46eqBlvU99r/3GJ+8abWqZi9gAtT/9+I+8abKqeqWtWazMT9BN5daK3v4E+08pLy60R3o+DT7dSVFlCEIBCEIBCcJiSeUQOloy9cCNV2PBbpEqsRXN7WLE8moc53oFg+N4tfNIb6RJuF1kb9t0R5lvI+s9+VHlWNuYHUPMJltlWyDGU6vY2DpPkVFZ8Rkd1Jb9lABlFuGBr9vq63CMAqs1yLDUDx2nz9p+mtXFYmoo3LVSE5lAX8JqsS+LZXqVOyarAXsUqazyC0oOxqvieJ16/aan5YFL2HyQ7D5JddjVfE8T8jV/JDsar4nifkav5IFZgaIp1aTkakq02PNfX9E+hsPiqhSm4RippqQQpIItqOrktPC+xqvieJ+Rqfkl5gamOVFei2KoNvZSlTLq1a1It9ED15NIkGx1HiOo9B1yamM49XPMTsO2Q4yu1TD4+iyZEzpXyMiVNYGR1YZS3DqmnIA73L/DYX8w3P0QLhKwMdDSlpPxb/CJY0WPDbpECXCIB5RFQGMb7XU+Df7JmcxR3dTy265o8b7XU+Df7JmbxZ3dTy364CVOuM6XO46eqLQ641pXvDzHqkx7kqfY1Q2s5N7ds3xiT+MudJ4Q1TTG2CmoY3LWy3tqzX1c1+WUuxnEbZd9/duvxSR+E0dViDqNtXBNM2vUtqzxa7I3e6HgMOaaFS4cZ2yMDcEcJX/Le/Jqmm0P3o+DT7dSUBYnWTfnl9ofvR8Gv26kyaLOEIQCEI1iKoRXc7yqzHzC8CPSxGZnI3lbIPNv/TGHxRZmWnWp3RglRW15GtmsbHUcrLq5uORtDE7UhO+5LNyk78o8Di6bNXcYtaQfF4glSaYKlW2s3za/2IGpOLVMiPUXPUzKvBnZVLEDmAJ5hGfXAhkRwqZyQpLg57Ldstt8ga9dtUzeHxSVSjVMegNLEVxTF6K5hZ6QOUndXRidXHDDYpKhV6mORTSxGIp0h3JMwsyXyk7slbnVA1NfEU7ojst3LbWCdbEC7WPNGKuRWRdtyM5ITXrawuQDvb0zuFxS1GzVMaimlicTTpDuSZ1AyA2bvyVubjinMJilqEPUxqKaWJxNOmO5JnVWZFax7+6C9xA0L5UKIamUvmCWfW9hdhci3LB2VWVWcqXJyqGFnyi56ByiUGFxK1CGqY5FNPEYhKY7kmdVZkU5WO6uovcb+/OYbFK5DVMcimniMTTpjuSZ1DFRuWO7JQA3G/v2gX1aqUZVR0DVAQiuO+yi7FSOTfvDOAVWpUGeqWyKoyg5Vu2XmGskzP4TFLUYPUxqK1KviqVIdyTOl8oOVjuiVANxzxeGxK1GV6mOQGnVxFOmO5JnU7m+UndGwBuOeBfuyhlVqhz1L5MzAFsozHLbVqGvmg7KrU0arleoX2sl905VbtawsbDXaUGGxKVGR6mORTTrV0pjuSZhZkvlJ3W416ueN4TErVNOpVxqI1KtikpjuSZgc1O+VjuiUF9XPvQNI21q1Om9UZqmfIL63yi72PICCeeSVr06bJTzqrVM2QX1vkALa+QEdMyeFxCVGSrUxqK1KriqdIdyTMpJQ7kndEqoNxFYaulR0qVMaitTqYqlTHckzKWKXynviVQG4gaV9IMrojBAahOUlxZwutso37gEG0exGKAKotRVZ7lM2sMF77rEymFxK1Cj1McimnWxVNB3JMyh2QHKe+uiBrjjiqOJVyjPjkBV6yIO5JmGZlG5J3RyqNY5TqgamjXIIWpUQtUvkC6r5RdrcZtr80Xt+Woin+8Ugc66+q/RMtia6irg27LWplxaKU7nds6PTBGXXqLCW+mauQU6nudRWPMCLjovAtsb7XU+Df7JmYxZ7pU8t+uafG+11Pg3+yZlsYe6VPLfrgIQ6xE6T73zHqnUOsRGkzuDzHqgZrYI16RP/nxH3jTW1zrmd2MaPOGBpMwc53e6ggbti4GvivaaCudctNpmZmfsJvNDoXvB5CfbqTN3mj0J3g8hPt1JUWkIQgEr9Nm2Hr24aTjpFvxlhK3Twvh6o5F+0LwIuAOVKfIoMptCbY1Ck4Sj3RTVBOe5zsz3NktfdSbjcSaWHq1ACxpYarUCjfYpTZgBzkSBgsIqJTp9hVNxTpoRelqIUA79TjvAe0utYLTrBcMexqhqlSXGcNTelbNk1Hdg+aJ0quIC0qhXDexqoqZb1BmLK1O1ymrv735JyhtdQMPW+oQHdCH2oXKNlb+91i435GwlFajYonA1CjYnKis1M5QiIjixq2Azq51b97wJOlkxAFKplw3seur5SagzZgadsxTV3978k5pdcQq0qxXD+xqofKWqDNnBp2zFNXf380jYGkrtiy2BqMhxeWmrGnuRTpUkcWNSwG2K51b97wwNJaj4stgndGxZSmrGmQop06VN1salhaqlQ6tRvfhgStLLiFFOtlwx7GqF8paoM2cGn3xTVbPe/JO6VGIUU6uTDHaKl8pNQZs/cxuimqxcHVxSFhkR3xRqYGoUbEZUVjTNtrREfUalgM6sRbUd+OUsMpeuamCdkqVKb01LU2yqqIDcGpZd2CbDngO6bOIRaVcphyMNWBy3qAvtoOHG6KbmxqhtXgzumVxCijWy4Y9i182UtUXPtiNh++KbmxqhtXgxFPCKWrbZgXZXqI6KWpsAFVOA1LLu1JsOeFLAAtX2zAu6VKqvTUtTYBQiaiDUsu7Umw54D2luyEWnWyYY9jVC5UtUXNnVqR3RTVbPfltbhiNNLiEFKuVw5GFqM5TNUGfbENHUxTVbbAfNOUtHXattmBdlqVQ6KXpNZQiCxBqWG6DGw44tNH3NXPgHZXqB0UtSYBQiDWDU1boMbDjgc0x2QgpVWXD2w9bNlvUGYuDRsGKatdQHzRWlmxCLTqFMMdqrLqLVBmz3pamKarFwfNEJo8g12qYB3V622U1zUmyoKdMWsamo51c2GrXfhkfR1Jai1apwVR0r1Vr0FZqZK09qpZQVapuWzq7WHhX4YEvS3ZCilUyYY7TWBClqgzZwaW+U1Wzg+ad0mMQop1cmGO01L5S1QZts7nvlNViwPmkXB0UqLUqNgKjJVcV6as1MlU2umVBU1dy2ZXNhx34Z3AYZaoeocE+WtUWtSRjTuqFEKgqallOYMbDjvwwHNkLVkw9So6Ycrhmp4sjNUDex3Woct0tchCPPLbTqXpVBxEyqWlTxWHba8E5XE4dsmbawbOhykjbNW+I/o3EGvgcPUY3NTBUHbytrXN0MGHmgX4q5sNnO+2GzHnKXMzeLN6lQg79RyOmWD4iumARsLQGIq5MiIzBF13GY5t8Di4Z5Rithek6zGvWaoalRi1RQWUJxWynLbkED0aihYixHnYDridK0yEOtTqPesG6p55h9g+NHfUHqc9eovUZY0dieIXf0WX/32JXqMDUYKmdsPBuV3yAN4cJlliaJFjdDq4HU/jMS2xWud7RJH/yGJP4yBiNhWLPe4NqfNiqrdbQN3NHoNroOSmoPJuqm/PFk9T/Hs1ialMa9YZ2t5s09O2ANjlptRx9EDawBTrZlzVQNQDKNdwP2oGxhCEAkTSaFqNRQLkobDjkuJIvqPDqMDNY7BNUp1KLB1WqjU2KFQyhhYlSQQDzgyN611vG8X8eh/Kl9W0NSa9ly38FmHUZV19iatvVqq81R/TAgUtCVEBCYzGKCzud3h++clmPtXCSYUdCOmYJi8YMzvUbd0NbObsfauOPnYb/qq3x39MQdhv8Aqa3x29MBujoN6eYJisWud3qNu6Gt3N2b2rhMMPoJ6YYJisWud3qNZ6Gt3OZ29q4TF9p3+prfHaJOw8eM1/lDA5T0C65suJxYzO7tu6OtnOZj7VwmLGhn8axfx6P8qIOw8eNYj5Q+iJ7UB41iPlD6ID3rPU8axfx6P8qd9aanjeL+PQ/lSP2ojxrEfKH0Q7Uh41iPlD6IEn1qq+N4v49D+VD1qq+OYz49D+VI3akPGsR8ofRDtSHjWI+UPogSToqqQQcZjNYsd3Q/lRqhoJ6aLTTF4tURBTVQ9DUoFgL7VfeiO1H/AFWI+UPonO08+OYj4/6QHKWg3RFRcXjAqoEUZ6GpQLAe1cUMPoOpTVETGYwKiqiDPh9QUAAe1cQiBsObxyv8f9IsbDj43W+OYBhdAvSVKdPF4xUpoqIM+H1KoAA9q4hJejtGmhRp4amrstNGRS5Us1yzEsQAL3Y7wEZp7D7b+KrH+NvTLPCbHkp77O/lO5/GBM0MpWkqtqK3BB4N6WEapUwoCqAANQA3hHYBCEIBCEIBCEIBCEIBCEIBCEIBOWnYQOWhadhATlEMo4oqEBOUcUMg4oqEBOQcUMg4oqEBOUcUMoioQE5RO2nYQOWnYQgEIQgEIQgEIQgEIQgEIQgEIQgEIQgEIQgEIQgEIQgEIQgEIQgEIQgEIQgEIQgEIQgEIQgEIQgEIQgEIQgf/9k=;" vertex="1" parent="10">
                    <mxGeometry width="190" height="190" as="geometry"/>
                </mxCell>
                <mxCell id="17" value="" style="group" vertex="1" connectable="0" parent="1">
                    <mxGeometry x="520" y="-470" width="190" height="222.15" as="geometry"/>
                </mxCell>
                <mxCell id="14" value="" style="shape=image;verticalLabelPosition=bottom;labelBackgroundColor=default;verticalAlign=top;aspect=fixed;imageAspect=0;image=data:image/png,iVBORw0KGgoAAAANSUhEUgAAAPsAAADJCAMAAADSHrQyAAAAsVBMVEX///9NTU1Ct/9GRkY6tf9JSUlHR0fk5ORCQkIws//d3d08PDzt9/8/Pz9MvP+Jz//d8f/r6+us2/3M7P/39/dwx/5ZWVmLi4v5/f/y8vLW7f9tbW1WVlZzc3ORkZHCwsKhoaFhYWG2trbMzMysrKzB4/+GhobQ0NCjo6OZmZlycnLW1tbDw8Ovr69pxP57e3ux3/2V1P1avv0zMzON0v7m9P99zP2l1/7I5v6k3f+84f9hFKzcAAAQ/klEQVR4nO2d54KyOhCGlaKgNAuKZXXVta2KwBFR7//CDilUuxCV/Xz/7NoiD2mTmUnM5T766KOPPvroo48iqixGw9VsPu81oXrz79mqPypVXn1dJFVc9H8mnW65XBY5jgYqFArwL81xovts97f5s1z8tXvQKq2anUae4wps/oJYmqPzg05vWKy/+opT0mI1yZevUMfuQLkxGZZefd1J1Sr1Bnm6cCt2oILbAL5LGa7+yqrD0TfX91H9c/R6lVH60oR+HBzj02yv+GqO+1Vp5ulk4Eh097v1apY7NaNTIQfi2P6rae5RZc2lRQ7ETrLT7UuN1CodietkxeIpdhMOcccqDLLR6etfKdc6EN17NdZNWqXa1z2Jo1dz3aJB6i0eqLB+NdcNav1HAj2fb2RgrC+WCbFnYKj/sH/YP+wf9g/7h/3Dfo9YtvsPsrM0x+Ybg846Ayu59NjZAieWG+vv4WhRzAB4LjX2AtftTH6mGTDiQ0qBnaXLdLNfykZdh5WYnS58zRavpnhMrUTsLN3tZbDCPTUe912w4np4rth6pViajpbLfn/oqt9fLkfTRanyXgPC6lF3Hcv+jo5R6q3KYjif/HYGja7bLGjOE83mu+7c15n0VqNK6z3uQavzQOzRFddYxouqL4bf64YocnSBZU83J5Yt0O5U2P2aD6dv0Fce8lGz7Cx66a3Sat3N3xzSc1tEvtv5fnnqwuL+UFyhG6306bzDcXffQpYWB83la5v/3TGpQidc6Ys5+3Ds2jWBuclLW399zt5T9XQ45jRaJ43gFujO8CWVj7+0OLk93YIN1fpoUE7Bv8+K7PAFdV/0kgUWbv3diOGbccX1meH8ftGd6fPZ5/6/pVmjfAM+N/M+MLyrp1wRK86f3fCL5ZAxXp82O+wVfHaAO3u9l3IQk3526Lr43yDyja3prFMW6fM5ZvQ3fudcTBfdLfrruZ2+WGa78dy4+nQ26XS50xOXiN/9TSB+S389mT3PNk5kyLSKrln+26UDFaDo/9DrldRrHah8ZCcTZne/cnI2LbJSGvVXP9/zXq85cdXs4bFxTiBjwR1Mvp453iHfBd2d3dfVWl9Ewvb57jPz8zy/DZf/vudrK2RSFvLcM/NyA58V3V2Pbq78P8YOzIvGvH8b/p9iZ90VlcgCz8r8ljShP8IOHEuiOFjPh9NFqVhp1W8Zav8Gu9jp/YzuNib/BHv9sfjRn2B/UK3mAz6qP8Keq1eGv+mk3L8Lu2YrtbFhVB3HBHKcatUY79q2dvLdi2827cp/AbsmKDtnq0sURTHHcp+VrK05Vmwh9rn6cJBu3T+bXTFk1WJ4BHlO7qs8I+lytRb9cGXFpUn/RHatXdX5K9TxO8BbZi1c//V5ak6757Fr7Y1O3YwdvgOUJY9DBU3T23jxHHbFkfhHwDE+T8ltv6xWMy1PBkueXWur0sPcfu3rY3/8nz8W0DxCHxB3V7ZVPik5qnzdb/qzVPJ26Pmly05Bwubxth6nZ1QFl9pLo+YLhB21ipUWOaSXdqjYeif5aM+dTeNIRwaVJror3kQFl5JWPEsTRq+lTO6K2aOiE8Zp6DzhzaRK6uSueNTsS4kqXVyTdtGq6Ve7W/EWsvMe7/EsPSDc3glVuwuPprrvBxs9Kw5+8ABfITe/H0hUu8suw9JHj1h3LJ1f930X4ZBcimaVELsKSy/ezc5y5cYsbMbS5Gzad2JnOW6wXkUGuPrkv6yyV9Z5ELC9tqRlWfiur9kiPrI36XJW2V21Rqv5utPlwFlIILnSvw/g3wKMBOQH697P8sSEVvzl8llmB6q3KuBAqPlk3Rm4agC5fztfk95sOCqeS6YdAi9A1tljqgNdvbLRGiar/TH2G1Sfeslq/xp7a/gleuugf4q92F+Hk6//HfbSz7ohRmZEMavsld7NZ/m1SqPZmisfhXUyy14UOXfybrqT9/k9IfV6cbTquSbA6W0G2WWncf5GuQzuwfwHbxKCW4b6w59vwCyWRe686Zdp9sBwBVYcByxcILhp6Lq5S5LdIMS+PWJ/UATZ20TQKcbIAHsuVf+0L8nOAjuRiudRtafBTjQWuedTR2e2WjbYc2barZ730N+fPeXADMOYfjA2BfY8YSe9oqcShYXipVASQnJ2tkMuGImqSDukNNwzEq50LSV2cUUMPVfD7VMwqMR1z/CMaXvlpsPO5smh55wgT6SmSknwGUo3/I4upGPXsQ2Svd1RgyxBza5aD6UagWwraaOE8g03ehrsbJ7ouRkOL0ce24Zs8XelHDEML22rSqQUg0+DXfwiO8Y7DG/G8kMF29haEsVcTbIDb5Cs7V4RYiUYp9Zx94rO37lb6W65a1hejSeGurJrB5BSyvMw0TAu8DRlqeahZh9/VNswydnpcpP4OTEOAyYm43RqsKZp7j3Ymxt5q6o6kKpuZdncGzvFfe10iTWdObl+v4u865NXyFW+A9s1o7avv/UmKTLsKQnYWbqcD0Vil+RsWsTuTs3W7kTLv1Nae4tnyUfZWa7QmUf2vRee4LNiGL2ajF4zVH9h4Psqbz/2AsRi2c4s9js1c4IxaIcJDdu8bijXP3JS9njLhywjzF4fztddEWwgv3QLoDcz/9tcHZ961hMJ+i6cyDzmmii6WYtPWVekaYqjStEJMYhN1CvF/myCDzVCv8lT8H6ThwNHanQHYDda6dSY1prQJP02TnwOd2uf0jfGqcnrhIT22FSpY1voOC5TKU2XwCsN9k83J/inmIb90eL87/AswRaMZ/uokdGimu4dsAXhaDLTNEEQ7PbBxCbQqRISxmFz4GdOYEd5jX8emDCMZOnulA73CEE5jinLqm5JzMXdFYnZS/MCmiNeGps4YdZdN/eTsVeWX/7PnDyzv6ejJOzT+SAUkcxsTOpe1UvLZj56pE5m2SuzxU2bqCF3cdgDwdjY5J9Z9mK5zHWaP/3ppf3F9eJiuer95ssnj5DJLjsNT+ilweGMX5P5bLgcLUrFYqVSLJYWU3e6h2ln3fyFI98yze4briiRUCx7EnG64QVrlyw7qTzqTZz9URFkJ5Q/z48zwJ7bEtk3oacVmyAaj1MkAux4v8y7s+fa5PZJvT17bpd4I+w59PdnzylWmukHDLXzS06BnSUcg9ac1KqeYeSQ1++9Y9BYSlr7oK1duNjk7BzpfdBAtiwlbfkMtY2dffHeMeiQW87eW7efc3EMHo3EppNjxuZJ/tpg1CffdnT+gcbPuG3djDR2zUyDnWWJ/tCiY0Yfa7ahWmcckKexGUpS90osrGGkEYOmB2RPJnaY8dFzWvtgghDsRc8cCsdSunyoHYdzbCp5DJoVe4SPuqjyTO3U85om1KqbrW4BN3QkEA06hQTct7Kzs08HYxUpcQyapdfEj6MG63fj/MuaYCvt2u5gVPfeeVaH3a6t2JdiNzWJSRqDLnf65M9mBez89rYgzG0STD5Z/J3lGr2n/D4N9NswVjW1AmtWkvg7S9Psuv+kE7ixz4qXjOThd7eL7CweJzPAx0XxjoMPWFqkO/Pl807fDuLvlnnmULpbpQl73ZsXMHvr+2vQvf7bEyzNFfKNTq9PMMHkhEK+SneAMh7v+MJ4G8rMDMWgS8vhfD1ggWsSxJ9ZXyAOzXFimet+NX/6i+f/xELET+vWmr5v3xl+dyUoIOUiUlIsLlOvVxbL1WzenKzX6y+g9XrS7H2v+tPizdGLtBX3UQPzVK6eMFfOSasZss7EDeEUYtDkdco/DywYSTXdafxCEwAz/26/tU4bf5ll9xoAyD/YyqZx2NUUmIQgCLat1HZjw9xsVdfgO597mm32oAnALMqIrsfg/wL7o/qwv7k+7B92IuxKG+n4q/Er1zM5tTbcscxQ7XY81b+9gw5WhjLaUZPUBkVfsVJJs+8oPDfEdyjkTDx/UNdSuNs6jz3IPK9GvIJgiwflvSRtQgaZpsOiL8OT3QMe2mqMd5EEN927ahyqPyfNDNuMDBXcwkPMmGT4wAkjwAgrf7lNETixEX6r5xAIRXkjF6JZ/iXLJy4rUGzHKuOXciI7jvEdrzexk90DHmZnIq4xxQ+EXGa30fsYZFJRwR10cAGo52AI/5bfxr4jwc47XvEhdivc4+VguXuRfYPepwuuTHfx4HXhMd6jIMnglZ3ulabcw54zCewB131MeA0WvDQ+NKjZ8GB7eFbmRXbBirylpvP4P/xFvqexTYX9Rbeyh6ogLfTQfkPEDjtteFCDQ6y0v8puI4aj8RqNlP6I6r+Tktp3sWtOerug4TduQ5ONhC4IfoEVPI/2UtV4j93eyK6C1wXw2NFwKhQfdydoerxAf9eTcRc7nEFTI2ekyJiG2AXYbRl/cobQvNH22U2wNgxNgxv42MDsTCxwhg+qYCLeZQ09p9/JnhP2KW3/Z6httI4Qu10LOa5zeOJitKDe0YgreZ8V4Azozme4JVOx2BGa+GLNAZ+0q93J7r7ZSbQJ2iPfxL8Ns6Mxy7tYPNLlAnYNvs+fBtEL7ogp6NiHLkcKRs9K0a9CjR6NDXexgx3weqLKZyjLObYhEbuC5irP8EK1vAux45bgzQ9w+IVN2vCmcSkcPEJ3KrZeQmYaX3uAPQfC7w/+6gLYCy3XTjn3PHbFq0kg2AjcgSrErqCRCjUMbPTBB34mEMNv/UkSvTlmDKNBAGV03s8Owu97sN3rHn4GbSw749X02LH92PY5wZWH2NHIzSCbaIcaAfw/dDg+w3i7ltHDWCANZUmiZx9hB7Jrjop2Al3fA+6ak7q5U867c332ajDFo3/bEXb8JOI1wx1ECeUBMRKkscPTWZx9n4Qd3YBdVYau2CPHpBeElyxVdsbXAjk+Oz4/ScO2Gmz+YXYBfQXorWi28pcEuWpAz8COcIn98TYfEQy+j/fmVoUpCPCC4J6xzd64EoI/ZkdjM5jiobsBtu4wO5qi4EyOnt6GEpcOVBDoA0+jf2OzftL+nroCdgOBaggS1mqEHU/xGh7l+WguTNXL/YTjOKr3mDGMjEfE+2bsArp2wab8jh1hR1O5i4YMGypWkIY9THDIkIIyAlVDBs+bsWuwvvkDGtRgrUbYc96CB9mA26OiDrxPjC2e6OtqyOB5M3a8PQWtZ9EqJMqOTABLk6O2vy908yD7JmTG+C+jZoHu2buxCyE/BjJLouzIBGDQkGWdmEA2PvvuhHGDmjxOmXs39rCvBtVYjB1dvRUex4Rw9W/9zoCHhPASB+//wMvat2Ov+dM0XoXE2O2gYXg+ng0fLOrxwhXObGghxwQLeLzo8X7W5+3YvdryTNc4e6hhWPgZ1TWjNjswpWtV/Fm0TsODPoUOVFIMnOLk+QQRO+OMPaWRSXWvwuy+W9l7HGcf87GbA8duhrd0Xcfzu9fHvZgKL4FjdzzDT/I6AR5bgvB53PvxDEXY8bYk358XZ9f8Ru+t2NC8FVjVjOfe0FT/PgUWd7CqDY2r6JXjKZO8Iuw51Oj9+Emc3QtEBH7e2EGivOX3YM08lepiRtr8q9lh8o53xdAtx3h+ZpcdPApdFl7wBButgB/Vr1WGD+/FyY2lyGtorFO9cT52ANfl4A8ZKcD/6i+4NAc8DPz0wBu7DQ/GuOLDUUUHRBxB6GUrxxdPO1nFPVqVa7h78CYsryZHldaZVQSFDF41Cmmfi2K7CiLcmuWN/U6y/NAXCXtvHsts1mTPt/faaf1B1dC1n9zNcF0aPmiXf/DzrxXq7tb1N56RDc9R4zPQuY+EvfRJ7BBFla6lW7yn8Ao9WXe1D7ssjnVooaa/wvZ+tRQJ2jqvML1fr8PGNDfHDpuPPvroo48+ulX/A0kHpseKF4LQAAAAAElFTkSuQmCC;" vertex="1" parent="17">
                    <mxGeometry width="190" height="152.15" as="geometry"/>
                </mxCell>
                <mxCell id="15" value="Database;&lt;br&gt;&lt;br&gt;MySQL" style="rounded=0;whiteSpace=wrap;html=1;" vertex="1" parent="17">
                    <mxGeometry y="152.15" width="190" height="70" as="geometry"/>
                </mxCell>
                <mxCell id="18" value="" style="shape=flexArrow;endArrow=classic;html=1;" edge="1" parent="1">
                    <mxGeometry width="50" height="50" relative="1" as="geometry">
                        <mxPoint x="500" y="300" as="sourcePoint"/>
                        <mxPoint x="320" y="100" as="targetPoint"/>
                    </mxGeometry>
                </mxCell>
                <mxCell id="19" value="Request App" style="edgeLabel;html=1;align=center;verticalAlign=middle;resizable=0;points=[];" vertex="1" connectable="0" parent="18">
                    <mxGeometry x="0.181" relative="1" as="geometry">
                        <mxPoint x="42" y="52" as="offset"/>
                    </mxGeometry>
                </mxCell>
                <mxCell id="20" value="" style="shape=flexArrow;endArrow=classic;html=1;" edge="1" parent="1">
                    <mxGeometry width="50" height="50" relative="1" as="geometry">
                        <mxPoint x="390" y="90" as="sourcePoint"/>
                        <mxPoint x="510" y="220" as="targetPoint"/>
                    </mxGeometry>
                </mxCell>
                <mxCell id="21" value="Return React App" style="edgeLabel;html=1;align=center;verticalAlign=middle;resizable=0;points=[];" vertex="1" connectable="0" parent="20">
                    <mxGeometry x="0.181" relative="1" as="geometry">
                        <mxPoint y="-1" as="offset"/>
                    </mxGeometry>
                </mxCell>
                <mxCell id="22" value="" style="shape=flexArrow;endArrow=classic;html=1;" edge="1" parent="1">
                    <mxGeometry width="50" height="50" relative="1" as="geometry">
                        <mxPoint x="730" y="240" as="sourcePoint"/>
                        <mxPoint x="810" y="130" as="targetPoint"/>
                    </mxGeometry>
                </mxCell>
                <mxCell id="23" value="Make API calls" style="edgeLabel;html=1;align=center;verticalAlign=middle;resizable=0;points=[];" vertex="1" connectable="0" parent="22">
                    <mxGeometry x="0.1594" relative="1" as="geometry">
                        <mxPoint x="1" as="offset"/>
                    </mxGeometry>
                </mxCell>
                <mxCell id="24" value="" style="shape=flexArrow;endArrow=classic;html=1;" edge="1" parent="1">
                    <mxGeometry width="50" height="50" relative="1" as="geometry">
                        <mxPoint x="870" y="140" as="sourcePoint"/>
                        <mxPoint x="730" y="340" as="targetPoint"/>
                    </mxGeometry>
                </mxCell>
                <mxCell id="25" value="Return JSON data" style="edgeLabel;html=1;align=center;verticalAlign=middle;resizable=0;points=[];" vertex="1" connectable="0" parent="24">
                    <mxGeometry x="0.1594" relative="1" as="geometry">
                        <mxPoint x="1" as="offset"/>
                    </mxGeometry>
                </mxCell>
                <mxCell id="26" value="" style="shape=flexArrow;endArrow=classic;html=1;" edge="1" parent="1">
                    <mxGeometry width="50" height="50" relative="1" as="geometry">
                        <mxPoint x="770" y="-130" as="sourcePoint"/>
                        <mxPoint x="670" y="-230" as="targetPoint"/>
                    </mxGeometry>
                </mxCell>
                <mxCell id="27" value="Make CRUD commands" style="edgeLabel;html=1;align=center;verticalAlign=middle;resizable=0;points=[];" vertex="1" connectable="0" parent="26">
                    <mxGeometry x="-0.2457" y="-1" relative="1" as="geometry">
                        <mxPoint x="-1" as="offset"/>
                    </mxGeometry>
                </mxCell>
                <mxCell id="28" value="" style="shape=flexArrow;endArrow=classic;html=1;" edge="1" parent="1">
                    <mxGeometry width="50" height="50" relative="1" as="geometry">
                        <mxPoint x="730" y="-250" as="sourcePoint"/>
                        <mxPoint x="850" y="-140" as="targetPoint"/>
                    </mxGeometry>
                </mxCell>
                <mxCell id="29" value="Return response" style="edgeLabel;html=1;align=center;verticalAlign=middle;resizable=0;points=[];" vertex="1" connectable="0" parent="28">
                    <mxGeometry x="-0.2457" y="-1" relative="1" as="geometry">
                        <mxPoint x="-1" as="offset"/>
                    </mxGeometry>
                </mxCell>
            </root>
        </mxGraphModel>
    </diagram>
</mxfile>